<?xml version="1.0" encoding="UTF-8" standalone="no"?>
<!-- Created with Inkscape (http://www.inkscape.org/) -->

<svg
   width="210mm"
   height="297mm"
   viewBox="0 0 210 297"
   version="1.1"
   id="svg5"
   inkscape:version="1.1.2 (0a00cf5339, 2022-02-04)"
   sodipodi:docname="TestPluma.svg"
   xmlns:inkscape="http://www.inkscape.org/namespaces/inkscape"
   xmlns:sodipodi="http://sodipodi.sourceforge.net/DTD/sodipodi-0.dtd"
   xmlns="http://www.w3.org/2000/svg"
   xmlns:svg="http://www.w3.org/2000/svg">
  <sodipodi:namedview
     id="namedview7"
     pagecolor="#ffffff"
     bordercolor="#666666"
     borderopacity="1.0"
     inkscape:pageshadow="2"
     inkscape:pageopacity="0.0"
     inkscape:pagecheckerboard="0"
     inkscape:document-units="mm"
     showgrid="false"
     inkscape:zoom="0.34832351"
     inkscape:cx="572.74342"
     inkscape:cy="24.402602"
     inkscape:window-width="1920"
     inkscape:window-height="962"
     inkscape:window-x="0"
     inkscape:window-y="0"
     inkscape:window-maximized="1"
     inkscape:current-layer="layer2" />
  <defs
     id="defs2" />
  <g
     inkscape:label="Capa 1"
     inkscape:groupmode="layer"
     id="layer1">
    <path
       style="fill:#ffff00;fill-rule:evenodd;stroke:#000000;stroke-width:1;stroke-miterlimit:4;stroke-dasharray:none"
       id="path31"
       d="m 130.8483,129.39337 a 34.772789,34.772789 0 0 1 -36.732844,19.46759 34.772789,34.772789 0 0 1 -29.139204,-29.65123 34.772789,34.772789 0 0 1 20.10443,-36.3882 34.772789,34.772789 0 0 1 40.611888,8.886154 L 99.428123,114.49641 Z"
       sodipodi:type="arc"
       sodipodi:arc-type="slice"
       sodipodi:start="0.44273078"
       sodipodi:end="5.5685251"
       sodipodi:ry="34.772789"
       sodipodi:rx="34.772789"
       sodipodi:cy="114.49641"
       sodipodi:cx="99.428123"
       transform="rotate(6.0853222)" />
    <path
       style="fill:#ffff00;fill-rule:evenodd;stroke:#000000;stroke-width:1;stroke-miterlimit:4;stroke-dasharray:none"
       id="path31-6"
       sodipodi:type="arc"
       sodipodi:arc-type="slice"
       sodipodi:start="0.44273078"
       sodipodi:end="5.5685251"
       sodipodi:ry="16.762159"
       sodipodi:rx="16.762159"
       sodipodi:cy="-30.066154"
       sodipodi:cx="43.668545"
       transform="rotate(96.169738)"
       d="m 58.814583,-22.885102 a 16.762159,16.762159 0 0 1 -17.707,9.384317 16.762159,16.762159 0 0 1 -14.0465,-14.293323 16.762159,16.762159 0 0 1 9.691304,-17.540863 16.762159,16.762159 0 0 1 19.576884,4.283554 l -12.660726,10.985263 z" />
    <path
       style="fill:#ffff00;fill-rule:evenodd;stroke:#000000;stroke-width:1;stroke-miterlimit:4;stroke-dasharray:none"
       id="path31-7"
       sodipodi:type="arc"
       sodipodi:arc-type="slice"
       sodipodi:start="0.44273078"
       sodipodi:end="5.5685251"
       sodipodi:ry="15.869155"
       sodipodi:rx="15.869155"
       sodipodi:cy="114.32713"
       sodipodi:cx="129.07477"
       transform="rotate(4.3051153)"
       d="m 143.4139,121.12561 a 15.869155,15.869155 0 0 1 -16.76366,8.88437 15.869155,15.869155 0 0 1 -13.29817,-13.53184 15.869155,15.869155 0 0 1 9.175,-16.606376 15.869155,15.869155 0 0 1 18.53392,4.055346 l -11.98622,10.40002 z" />
    <path
       style="fill:#ffff00;fill-rule:evenodd;stroke:#000000;stroke-width:1;stroke-miterlimit:4;stroke-dasharray:none"
       id="path31-7-8"
       sodipodi:type="arc"
       sodipodi:arc-type="slice"
       sodipodi:start="0.44273078"
       sodipodi:end="5.5685251"
       sodipodi:ry="6.1090369"
       sodipodi:rx="6.1090369"
       sodipodi:cy="112.20432"
       sodipodi:cx="143.53336"
       transform="rotate(4.3051153)"
       d="m 149.05339,114.82149 a 6.1090369,6.1090369 0 0 1 -6.45339,3.42015 6.1090369,6.1090369 0 0 1 -5.1193,-5.20926 6.1090369,6.1090369 0 0 1 3.53203,-6.39284 6.1090369,6.1090369 0 0 1 7.13488,1.56116 l -4.61425,4.00362 z" />
    <path
       style="fill:#ffff00;fill-rule:evenodd;stroke:#000000;stroke-width:1;stroke-miterlimit:4;stroke-dasharray:none"
       id="path12627"
       sodipodi:type="arc"
       sodipodi:arc-type="slice"
       sodipodi:start="0.44273078"
       sodipodi:end="5.5685251"
       sodipodi:ry="9.4766359"
       sodipodi:rx="9.4766359"
       sodipodi:cy="-32.794476"
       sodipodi:cx="64.485016"
       transform="rotate(96.169738)"
       d="m 73.047963,-28.734604 a 9.4766359,9.4766359 0 0 1 -10.01081,5.305507 9.4766359,9.4766359 0 0 1 -7.941313,-8.080857 9.4766359,9.4766359 0 0 1 5.479064,-9.916883 9.4766359,9.4766359 0 0 1 11.067966,2.421746 l -7.157854,6.210615 z" />
    <path
       style="fill:#ffff00;fill-rule:evenodd;stroke:#000000;stroke-width:1;stroke-miterlimit:4;stroke-dasharray:none"
       id="path12629"
       sodipodi:type="arc"
       sodipodi:arc-type="slice"
       sodipodi:start="0.44273078"
       sodipodi:end="5.5685251"
       sodipodi:ry="4.7632699"
       sodipodi:rx="4.7632699"
       sodipodi:cy="-34.444935"
       sodipodi:cx="77.410065"
       transform="rotate(96.169738)"
       d="m 81.714085,-32.404309 a 4.7632699,4.7632699 0 0 1 -5.031764,2.666723 4.7632699,4.7632699 0 0 1 -3.991566,-4.061706 4.7632699,4.7632699 0 0 1 2.753959,-4.984552 4.7632699,4.7632699 0 0 1 5.563125,1.217249 l -3.597774,3.12166 z" />
    <path
       style="fill:#ffff00;fill-rule:evenodd;stroke:#000000;stroke-width:1;stroke-miterlimit:4;stroke-dasharray:none"
       id="path12631"
       sodipodi:type="arc"
       sodipodi:arc-type="slice"
       sodipodi:start="0.44273078"
       sodipodi:end="5.5685251"
       sodipodi:ry="16.762159"
       sodipodi:rx="16.762159"
       sodipodi:cy="63.948967"
       sodipodi:cx="208.25533"
       transform="rotate(64.730917)"
       d="m 223.40136,71.130019 a 16.762159,16.762159 0 0 1 -17.707,9.384317 16.762159,16.762159 0 0 1 -14.0465,-14.293322 16.762159,16.762159 0 0 1 9.69131,-17.540863 16.762159,16.762159 0 0 1 19.57688,4.283554 l -12.66072,10.985262 z" />
    <path
       style="fill:#ffff00;fill-rule:evenodd;stroke:#000000;stroke-width:1;stroke-miterlimit:4;stroke-dasharray:none"
       id="path12633"
       sodipodi:type="arc"
       sodipodi:arc-type="slice"
       sodipodi:start="0.44273078"
       sodipodi:end="5.5685251"
       sodipodi:ry="16.762159"
       sodipodi:rx="16.762159"
       sodipodi:cy="-67.882935"
       sodipodi:cx="-256.04361"
       transform="rotate(-128.01323)"
       d="m -240.89757,-60.701882 a 16.762159,16.762159 0 0 1 -17.707,9.384317 16.762159,16.762159 0 0 1 -14.0465,-14.293323 16.762159,16.762159 0 0 1 9.6913,-17.540863 16.762159,16.762159 0 0 1 19.57689,4.283554 l -12.66073,10.985262 z" />
    <path
       style="fill:#0000ff;stroke:#00ffff;stroke-width:0.264583px;stroke-linecap:butt;stroke-linejoin:miter;stroke-opacity:1"
       d="m 48.343798,240.45054 0.405016,-61.58323 20.537141,2.2224 -9.623957,13.6667 c 0,0 25.967026,-4.5709 29.011324,-6.09305 3.044299,-1.52215 19.322088,-38.31928 19.322088,-38.31928 l 24.46862,7.15974 -16.00037,27.68204 -12.61929,23.55325 -25.272715,0.40946 18.670802,-7.48018 c 0,0 1.710563,-11.19952 0.02522,-10.4963 -1.685343,0.70321 -9.661046,6.02035 -9.661046,6.02035 l -14.344693,5.28746 -0.06379,19.15 c 0,0 8.77535,3.75938 10.905765,3.75938 2.130414,0 12.009546,-7.60036 12.009546,-7.60036 0,0 -8.851014,-2.01766 -10.592732,-2.01766 -1.741717,0 -2.358887,-4.1377 -2.358887,-4.1377 l 13.006509,0.2804 h 7.018801 c 0,0 0.98954,5.67171 0.22995,8.70117 -0.75959,3.02946 -2.88703,6.56334 -2.88703,6.56334 l -16.438026,0.57266 -19.888817,1.88118 0.418367,15.55232 9.736709,1.00141 0.673542,-10.14766 8.055816,-2.74016 c 0,0 1.983542,0.75069 1.983542,5.29785 0,4.54716 2.278772,10.62388 0,13.66225 -2.278772,3.03836 -3.022044,4.16736 -9.095803,4.93289 -6.073759,0.76552 -13.844728,-0.002 -17.17684,-0.002 -3.33211,0 -10.242606,-0.77442 -12.117845,-1.52511 -1.87524,-0.75069 -9.996334,-6.90456 -11.837453,-7.26508 -1.841116,-0.3605 -13.252781,5.34533 -12.872986,8.38369 0.379795,3.03836 4.82162,11.88789 6.570756,12.26175 1.749137,0.37385 1.626,7.17457 -2.557684,9.08394 -4.183683,1.90936 -6.785875,3.83206 -11.362706,1.14977 -4.576831,-2.68229 -6.9906093,-28.32888 -6.9906093,-32.50663 0,-4.17775 2.1274476,-16.1235 10.4710773,-16.1235 8.34363,0 27.057454,12.48132 27.057454,12.48132 z"
       id="path12668" />
  </g>
  <g
     inkscape:groupmode="layer"
     id="layer2"
     inkscape:label="Capa 2">
    <path
       style="fill:#ff2a2a;fill-rule:evenodd;stroke:#000000;stroke-width:1;stroke-miterlimit:4;stroke-dasharray:none"
       id="path31-63"
       sodipodi:type="arc"
       sodipodi:arc-type="slice"
       sodipodi:start="0.44273078"
       sodipodi:end="5.578943"
       sodipodi:ry="130.38634"
       sodipodi:rx="130.38634"
       sodipodi:cy="-161.08081"
       sodipodi:cx="-136.68465"
       transform="rotate(130.57074)"
       d="m -18.869489,-105.22219 a 130.38634,130.38634 0 0 1 -138.071421,72.944644 130.38634,130.38634 0 0 1 -109.01705,-111.803034 130.38634,130.38634 0 0 1 76.40484,-136.18715 130.38634,130.38634 0 0 1 152.236207,34.76743 l -99.367737,84.41949 z" />
    <path
       style="fill:#008000;stroke:#1a1a1a;stroke-width:0.264583px;stroke-linecap:butt;stroke-linejoin:miter;stroke-opacity:1"
       d="m 156.32883,230.4364 39.4735,0.98955 10.95027,-11.37235 -24.84025,-0.0334 0.37609,-28.58257 -12.8003,0.31006 -0.6142,26.7155 -6.0923,0.17654 0.39092,-27.00775 -12.65342,0.17728 -0.41614,26.92913 -16.88606,-0.0638 9.12696,11.30856 z"
       id="path12979" />
    <path
       style="fill:#ffff00;stroke:#000000;stroke-width:0.264583px;stroke-linecap:butt;stroke-linejoin:miter;stroke-opacity:1"
       d="m 13.054725,131.65362 -3.8691657,12.16199 7.6493167,-1.35043 -4.697372,15.2608 10.779662,-19.34545 -9.846122,1.82628 2.607014,-8.93261 z"
       id="path13146" />
    <path
       style="fill:#0000ff;stroke:#000000;stroke-width:1.11847;stroke-linecap:butt;stroke-linejoin:miter;stroke-opacity:1"
       d="m 130.7683,98.78389 c 0,0 10.13221,-53.048361 42.64983,-53.214376 34.47493,-0.176007 12.55847,63.069776 12.55847,63.069776"
       id="path13233"
       sodipodi:nodetypes="csc" />
    <path
       style="fill:#ececec;stroke:#000000;stroke-width:1.02670297;stroke-linecap:butt;stroke-linejoin:miter;stroke-opacity:1"
       d="m 188.46753,60.047728 c -5.384,-7.123505 -24.1207,-4.277933 -29.95488,0.05934 -5.83418,4.337276 -2.71612,8.395442 -0.28336,11.251439 6.38101,7.491153 22.13616,9.488637 29.25462,3.959663 4.245,-3.297127 4.22455,-10.982397 0.98362,-15.270446 z"
       id="path17379"
       sodipodi:nodetypes="szass" />
    <path
       style="fill:#0000ff;stroke:#000000;stroke-width:0.94303;stroke-linecap:butt;stroke-linejoin:miter;stroke-opacity:1"
       d="m 144.27181,63.115763 c 0,0 -0.20127,-3.311931 -9.92661,-1.872274 -0.26604,0.03938 -0.31307,0.438282 -0.46756,0.660188 -6.11404,8.781903 -10.07224,20.432092 -9.00359,32.807798 0.44926,5.202707 10.04233,3.143695 10.04233,3.143695 z"
       id="path21784"
       sodipodi:nodetypes="cssscc" />
    <path
       style="fill:#ffcc00;stroke:#000000;stroke-width:0.264583px;stroke-linecap:butt;stroke-linejoin:miter;stroke-opacity:1"
       d="m 166.30111,260.34543 c 0,0 -27.30076,-21.37796 -0.0549,-26.13133 27.24587,-4.75338 11.4547,25.47929 11.4547,25.47929 0,0 43.23955,-9.29237 23.99757,2.88334 -19.24198,12.1757 -20.36022,-0.0523 -20.36022,-0.0523 0,0 -1.9357,20.36913 16.033,16.76664 17.9687,-3.60248 6.3282,24.42671 -14.95815,12.26286 -21.28635,-12.16382 -16.83822,-4.25341 -16.83822,-4.25341 0,0 16.26593,5.30751 -4.35948,6.68538 -20.62541,1.37787 3.24384,-25.00421 3.24384,-25.00421 0,0 -41.427,18.08554 -32.01149,3.15558 9.41552,-14.92997 33.85335,-11.79184 33.85335,-11.79184 z"
       id="path25170"
       sodipodi:nodetypes="cscscsscscscc" />
    <path
       style="fill:#333333;stroke:#000000;stroke-width:0.252722;stroke-linecap:butt;stroke-linejoin:miter;stroke-opacity:1"
       d="m 42.356414,289.39744 0.180967,-5.74776 -4.716256,0.0835 0.251363,-2.79771 2.33674,-1.12836 0.332853,-7.57454 12.215776,-0.51527 -0.602987,8.42738 c 0,0 -0.02955,2.48605 1.280714,2.15222 1.310282,-0.33384 5.025803,-0.23898 5.025803,-0.23898 l 6.901328,-0.0259 c 0,0 -1.38381,-5.33642 4.83354,-9.5504 6.21735,-4.21392 15.763295,-6.07844 15.763295,-6.07844 0,0 3.35621,-1.49926 2.975769,2.73488 -0.38044,4.23409 -8.086649,4.39898 -8.086649,4.39898 0,0 -4.334598,-0.21461 -6.598044,4.45067 -2.263425,4.66507 6.217604,4.34109 6.217604,4.34109 l 6.449279,-0.24209 -3.696289,1.53928 c 0,0 -4.00751,0.14567 -2.292273,1.57993 1.715231,1.43436 2.285306,1.02645 2.285306,1.02645 0,0 -3.209622,0.31517 -1.88059,1.41419 1.329032,1.09876 3.006058,0.10575 3.006058,0.10575 0,0 1.528977,2.92041 4.095479,2.00313 2.566488,-0.91727 1.353541,-0.3468 1.353541,-0.3468 l 2.433837,2.03227 -11.014369,-0.16277 -3.250947,2.54971 -17.248546,-0.66545 1.288173,-4.22123 -5.118811,-0.49195 -2.141097,1.53244 -1.02045,-1.81361 -3.091369,1.66359 -0.179308,3.80907 -8.363268,-0.35405 z"
       id="path25888" />
    <path
       id="rect27317"
       style="fill:#ffffff;stroke:#1a1a1a;stroke-width:1.09208;stroke-miterlimit:4;stroke-dasharray:none"
       d="m 113.36931,-20.336522 2.04852,4.353731 -1.25143,2.14432 -10.82587,5.0992863 7.50612,15.935636 -2.06062,1.517841 -11.499961,-3.979222 3.836811,11.5484887 -7.337911,9.707806 12.168481,-0.0806 6.96525,9.978938 3.68378,-11.598446 11.64254,-3.540102 5.02495,7.154808 2.62283,-8.340286 8.35728,-2.567862 -7.12193,-5.071457 0.007,-0.417326 27.12708,-12.7776077 1.23772,0.33324 2.09614,5.92843 3.43042,-5.269926 6.28577,-0.161217 -3.95131,-4.891231 0.0778,-0.261701 3.86153,-1.818891 a 19.368082,17.312587 64.778264 0 0 15.73014,1.099584 19.368082,17.312587 64.778264 0 0 7.40886,-24.8991653 19.368082,17.312587 64.778264 0 0 -0.29975,-0.565976 l 4.86729,-1.836229 -6.02427,-3.744004 -0.33041,-7.085179 -5.42267,4.57178 -0.4959,-0.135989 a 19.368082,17.312587 64.778264 0 0 -16.20952,-1.348473 19.368082,17.312587 64.778264 0 0 -5.20643,4.035234 l -1.32608,-2.815283 -47.67319,22.455396 -0.25903,-0.142462 -0.48069,-4.787194 -3.50753,3.293258 z" />
    <path
       id="rect28054"
       style="fill:#ffffff;stroke:#1a1a1a;stroke-width:1.45963851;stroke-miterlimit:4;stroke-dasharray:none"
       d="m 217.9879,49.34033 v 72.17294 a 35.461403,40.635357 0 0 0 3.65803,0.24395 35.461403,40.635357 0 0 0 35.46116,-40.63475 35.461403,40.635357 0 0 0 -13.36388,-31.78214 z" />
    <path
       id="path29547"
       style="fill:#ffffff;stroke:#1a1a1a;stroke-width:1.38561;stroke-miterlimit:4;stroke-dasharray:none"
       inkscape:transform-center-x="1.8516522"
       inkscape:transform-center-y="-1.2192252"
       d="m 296.43378,-8.0723257 -19.49826,-6.2693773 -5.88893,-19.616338 -11.98778,16.606629 -20.47602,-0.460964 5.9311,8.1113463 a 50.335793,33.019607 43.686195 0 1 36.42901,12.359653 z" />
  </g>
</svg>
